<mxfile host="app.diagrams.net" modified="2024-05-22T10:47:46.584Z" agent="Mozilla/5.0 (Windows NT 10.0; Win64; x64) AppleWebKit/537.36 (KHTML, like Gecko) Chrome/124.0.0.0 Safari/537.36" version="24.4.4" etag="00_3E8Wf4y0phdqEe4sG" type="github">
  <diagram name="Страница — 1" id="XjmfecAQCr9V_7dT3KKa">
    <mxGraphModel>
      <root>
        <mxCell id="0" />
        <mxCell id="1" parent="0" />
      </root>
    </mxGraphModel>
  </diagram>
</mxfile>
